# xmcd
#
# Track frame offsets:
#	150
#	10743
#	26628
#	41965
#	61888
#	79306
#	95869
#	100564
#	111793
#	123308
#	143246
#	157019
#	171649
#
# Disc length: 2722 seconds
#
# Revision: 0
# Processed by: cddbd v1.5.1PL2 Copyright (c) Steve Scherf et al.
# Submitted via: dBpowerAMP V4.0
#
DISCID=b20aa00d
DTITLE=Bill Dees - Castin' My Spell On You
DYEAR=1900
DGENRE=Blues
TTITLE0=Castin' My Spell On You
TTITLE1=The Hurting Game
TTITLE2=Sixteen Tons
TTITLE3=False Prophets
TTITLE4=If I'd Only Known The Last Time (Was The Last Time)
TTITLE5=Welcome To My Heart
TTITLE6=Welcome To My Heart (Reprise)
TTITLE7=No Rest For The Wicked
TTITLE8=If You Start Walkin'
TTITLE9=Hey Baby (Where You Goin')
TTITLE10=Has Anybody Seen Me Lately
TTITLE11=Hick Town
TTITLE12=There's A Song For Us
EXTD=Submitted by ddees 01-04-2006
EXTT0=
EXTT1=
EXTT2=
EXTT3=
EXTT4=
EXTT5=
EXTT6=
EXTT7=
EXTT8=
EXTT9=
EXTT10=
EXTT11=
EXTT12=
PLAYORDER=
